<mxfile host="app.diagrams.net" modified="2022-01-11T14:39:11.777Z" agent="5.0 (Windows NT 10.0; Win64; x64) AppleWebKit/537.36 (KHTML, like Gecko) Chrome/97.0.4692.71 Safari/537.36" etag="iZuU9Zsi2kyj1wJuHTkK" version="16.2.4" type="github">
  <diagram id="C5RBs43oDa-KdzZeNtuy" name="Page-1">
    <mxGraphModel dx="1422" dy="800" grid="1" gridSize="10" guides="1" tooltips="1" connect="1" arrows="1" fold="1" page="1" pageScale="1" pageWidth="827" pageHeight="1169" math="0" shadow="0">
      <root>
        <mxCell id="WIyWlLk6GJQsqaUBKTNV-0" />
        <mxCell id="WIyWlLk6GJQsqaUBKTNV-1" parent="WIyWlLk6GJQsqaUBKTNV-0" />
        <mxCell id="Rk7k_CKYjR_Ya-lK1rx9-0" value="&lt;b style=&quot;line-height: 1.2&quot;&gt;&lt;font style=&quot;font-size: 22px&quot;&gt;APP&lt;/font&gt;&lt;/b&gt;" style="rounded=0;whiteSpace=wrap;html=1;" vertex="1" parent="WIyWlLk6GJQsqaUBKTNV-1">
          <mxGeometry x="20" y="50" width="260" height="700" as="geometry" />
        </mxCell>
        <mxCell id="Rk7k_CKYjR_Ya-lK1rx9-1" value="&lt;font style=&quot;font-size: 19px&quot;&gt;Searchbar&lt;br&gt;userSearch&lt;br&gt;&lt;/font&gt;" style="rounded=0;whiteSpace=wrap;html=1;fontSize=22;" vertex="1" parent="WIyWlLk6GJQsqaUBKTNV-1">
          <mxGeometry x="280" y="120" width="260" height="190" as="geometry" />
        </mxCell>
        <mxCell id="Rk7k_CKYjR_Ya-lK1rx9-2" value="MovieCard" style="rounded=0;whiteSpace=wrap;html=1;fontSize=19;" vertex="1" parent="WIyWlLk6GJQsqaUBKTNV-1">
          <mxGeometry x="280" y="470" width="260" height="190" as="geometry" />
        </mxCell>
        <mxCell id="Rk7k_CKYjR_Ya-lK1rx9-4" value="" style="endArrow=classic;html=1;rounded=0;fontSize=19;" edge="1" parent="WIyWlLk6GJQsqaUBKTNV-1" target="Rk7k_CKYjR_Ya-lK1rx9-6">
          <mxGeometry width="50" height="50" relative="1" as="geometry">
            <mxPoint x="360" y="230" as="sourcePoint" />
            <mxPoint x="340" y="180" as="targetPoint" />
          </mxGeometry>
        </mxCell>
        <mxCell id="Rk7k_CKYjR_Ya-lK1rx9-5" value="emit" style="text;html=1;align=center;verticalAlign=middle;resizable=0;points=[];autosize=1;strokeColor=none;fillColor=none;fontSize=19;rotation=-30;" vertex="1" parent="WIyWlLk6GJQsqaUBKTNV-1">
          <mxGeometry x="270" y="230" width="50" height="30" as="geometry" />
        </mxCell>
        <mxCell id="Rk7k_CKYjR_Ya-lK1rx9-6" value="userSearch" style="text;html=1;align=center;verticalAlign=middle;resizable=0;points=[];autosize=1;strokeColor=none;fillColor=none;fontSize=19;" vertex="1" parent="WIyWlLk6GJQsqaUBKTNV-1">
          <mxGeometry x="160" y="290" width="110" height="30" as="geometry" />
        </mxCell>
        <mxCell id="Rk7k_CKYjR_Ya-lK1rx9-7" value="" style="endArrow=classic;html=1;rounded=0;fontSize=19;exitX=0.527;exitY=1.067;exitDx=0;exitDy=0;exitPerimeter=0;" edge="1" parent="WIyWlLk6GJQsqaUBKTNV-1" source="Rk7k_CKYjR_Ya-lK1rx9-6">
          <mxGeometry width="50" height="50" relative="1" as="geometry">
            <mxPoint x="200" y="360" as="sourcePoint" />
            <mxPoint x="360" y="590" as="targetPoint" />
            <Array as="points">
              <mxPoint x="250" y="490" />
            </Array>
          </mxGeometry>
        </mxCell>
        <mxCell id="Rk7k_CKYjR_Ya-lK1rx9-8" value="userSearch" style="text;html=1;align=center;verticalAlign=middle;resizable=0;points=[];autosize=1;strokeColor=none;fillColor=none;fontSize=19;" vertex="1" parent="WIyWlLk6GJQsqaUBKTNV-1">
          <mxGeometry x="350" y="585" width="110" height="30" as="geometry" />
        </mxCell>
        <mxCell id="Rk7k_CKYjR_Ya-lK1rx9-9" value="prop" style="text;html=1;align=center;verticalAlign=middle;resizable=0;points=[];autosize=1;strokeColor=none;fillColor=none;fontSize=19;rotation=45;" vertex="1" parent="WIyWlLk6GJQsqaUBKTNV-1">
          <mxGeometry x="250" y="480" width="50" height="30" as="geometry" />
        </mxCell>
        <mxCell id="Rk7k_CKYjR_Ya-lK1rx9-10" value="Movie API" style="text;html=1;align=center;verticalAlign=middle;resizable=0;points=[];autosize=1;strokeColor=none;fillColor=none;fontSize=19;" vertex="1" parent="WIyWlLk6GJQsqaUBKTNV-1">
          <mxGeometry x="100" y="440" width="100" height="30" as="geometry" />
        </mxCell>
      </root>
    </mxGraphModel>
  </diagram>
</mxfile>
